<svg version="1.1" id="Capa_1" xmlns="http://www.w3.org/2000/svg" xmlns:xlink="http://www.w3.org/1999/xlink" x="0px"
		 y="0px"
		 viewBox="0 0 379.281 379.281" style="enable-background:new 0 0 379.281 379.281;" xml:space="preserve">

	<rect x="0" y="0" width="320" rx="10" height="380" fill="#fff" />
<g transform="translate(-30 0)" opacity="0.5">
	<path d="M339.641,0h-300c-5.514,0-10,4.486-10,10v359.281c0,5.514,4.486,10,10,10h300c5.514,0,10-4.486,10-10V10
		C349.641,4.486,345.154,0,339.641,0z M329.641,359.281h-280V96.557h280V359.281z"/>
	<path d="M89.641,175.641h200c2.762,0,5-2.239,5-5v-34c0-2.761-2.238-5-5-5h-200c-2.762,0-5,2.239-5,5v34
		C84.641,173.402,86.879,175.641,89.641,175.641z"/>
	<path d="M89.641,322.641h91c2.762,0,5-2.239,5-5v-95c0-2.761-2.238-5-5-5h-91c-2.762,0-5,2.239-5,5v95
		C84.641,320.402,86.879,322.641,89.641,322.641z"/>
	<path d="M289.641,217.641h-70c-2.762,0-5,2.239-5,5v29c0,2.761,2.238,5,5,5h70c2.762,0,5-2.239,5-5v-29
		C294.641,219.879,292.402,217.641,289.641,217.641z"/>
	<path d="M289.641,282.324h-70c-2.762,0-5,2.239-5,5v29c0,2.761,2.238,5,5,5h70c2.762,0,5-2.239,5-5v-29
		C294.641,284.563,292.402,282.324,289.641,282.324z"/>
</g>
<g transform="scale(-0.4 0.4) translate(-514 432)" stroke="#666" stroke-width="12">
	<path style="fill:#A3E1FF;" d="M476.85,35.151c46.868,46.857,46.868,122.836,0,169.704l-98.879,98.89
		c-13.312,13.312-28.965,22.832-45.641,28.582c-25.364,8.743-53.068,8.743-78.432,0c-16.677-5.75-32.329-15.27-45.641-28.582
		c-13.301-13.312-22.832-28.965-28.582-45.641l2.104-2.104c-2.104,2.104,37.087-37.849,37.087-37.849l37.137,37.849
		c20.458,20.469,53.755,20.469,74.224,0l2.104-2.104l96.786-96.786c20.458-20.458,20.458-53.755,0-74.224
		c-20.469-20.458-53.766-20.458-74.224,0l-96.786,96.786L218.89,195.62l-39.216-15.949c5.75-16.665,15.27-32.329,28.582-45.641
		l98.89-98.879C354.014-11.717,429.993-11.717,476.85,35.151z"/>
	<path style="fill:#4AAEE2;" d="M258.106,179.671c16.665,5.75,32.318,15.281,45.63,28.593c13.312,13.301,22.843,28.965,28.593,45.63
		l-2.104,2.104c-20.469,20.469-53.766,20.469-74.224,0c-20.469-20.458-53.766-20.458-74.224,0l-2.104,2.104l-96.786,96.786
		c-20.469,20.469-20.469,53.766,0,74.224c20.458,20.469,53.755,20.469,74.224,0l96.786-96.786c25.364,8.743,53.068,8.743,78.432,0
		c-5.75,16.677-15.281,32.329-28.593,45.641l-98.879,98.89c-46.868,46.857-122.847,46.857-169.715,0
		c-46.857-46.868-46.857-122.847,0-169.715l98.89-98.879c13.312-13.312,28.965-22.843,45.641-28.593
		C205.038,170.929,232.742,170.929,258.106,179.671z"/>
</g>
	<g stroke-width="16" transform="scale(0.4) translate(424 482)">
   <path fill="#ebba16" stroke="#666" d="M148.703 86.703V81.86a29.256 29.256 0 00-29.256-29.256H37.103A29.256 29.256 0 007.75 81.86v362.41A14.531 14.531 0 0022.378 458.8h408.619V116.056A29.256 29.256 0 00401.74 86.8H148.703z" stroke-width="15.5"/>
   <path fill="#ffde47" stroke="#888" d="M474.494 185.225H93.775c-13.853 0-25.866 8.912-28.675 21.313L9.397 451.63a14.531 13.175 0 0012.981 7.266h425.088a29.256 26.447 0 0029.062-23.638l27.222-220.584c1.84-15.694-11.722-29.45-29.16-29.45z" stroke-width="15.5"/>
 </g>

</svg>

