<svg xmlns="http://www.w3.org/2000/svg" viewBox="0 0 64 64" width="64" height="64">
  <path fill="#fff" d="M30.8 18.6v-5.3H10.7V56h48V18.6z"/>
  <path d="M26.8 50.6h-16V13.3h14.9l5.3 5.3h22.5v10.7h5.3V16c0-1.5-1.2-2.7-2.7-2.7h-23L27.8 8H8c-1.5 0-2.7 1.2-2.7 2.7v42.6C5.3 54.8 6.5 56 8 56h18.8v-5.4z" fill="#666"/>
  <path d="M55.2 44.6l-1.9 6.1h5.2l-1.1 5.4h-5.9l-2 6.3h-5.9l2-6.3h-5.1l-2 6.3h-5.9l2-6.3h-5.3l1.1-5.4h5.9l1.9-6.1H33l1.1-5.4H40l2-6.3h6l-2 6.3h5.1l2-6.3H59l-2 6.3h5.3l-1.1 5.4h-6zm-5.9 0h-5.1l-1.9 6.1h5.1l1.9-6.1z" fill="#1d83d4"/>
</svg>