<svg xmlns="http://www.w3.org/2000/svg" viewBox="0 0 64 64" width="64" height="64">
  <path fill="#fff" d="M30.9 18.7h22.5v13.8H30.9z" />
  <path fill="#fff" d="M10.7 13.3h20.2v37.3H10.7z" />
  <path fill="#fff" d="M10.7 18.7h42.7v32H10.7z" />
  <path fill="#666" d="M10.7 13.3v37.3h42.7v-32H30.9l-5.3-5.3H10.7zm22.4 0H56c1.5 0 2.7 1.2 2.7 2.7v37.3c0 1.5-1.2 2.7-2.7 2.7H8c-1.5 0-2.7-1.2-2.7-2.7V10.7C5.3 9.2 6.5 8 8 8h19.8l5.3 5.3z"/>
  <path fill="#fff" d="M16.3 23.9h42.6v32.3H16.3z" />
  <path fill="#fff" d="M30.7 47.4h21.6v10H30.7z" />
  <path fill="#666" d="M57.4 44c0-8.7-7.1-15.8-15.8-15.8S25.8 35.3 25.8 44v7.9h5.9c1.1 0 2 .9 2 2v5.9h15.8v-5.9c0-1.1.9-2 2-2h5.9V44zm-4 11.8v5.9c0 1.1-.9 2-2 2H31.7c-1.1 0-2-.9-2-2v-5.9h-5.9c-1.1 0-2-.9-2-2V44c0-10.9 8.8-19.7 19.7-19.7S61.3 33.1 61.3 44v9.9c0 1.1-.9 2-2 2h-5.9z"/>
  <path fill="#1d83d4" d="M32.7 45.5c-1.6 0-3-1.3-3-3 0-1.6 1.3-3 3-3 1.6 0 3 1.3 3 3s-1.3 3-3 3zm17.8 0c-1.6 0-3-1.3-3-3 0-1.6 1.3-3 3-3 1.6 0 3 1.3 3 3-.1 1.7-1.4 3-3 3z" />
</svg>