<svg xmlns="http://www.w3.org/2000/svg" viewBox="0 0 379.281 379.281" width="64" height="64">
  <rect width="320" rx="10" height="380" fill="#fff"/>
  <g opacity=".5">
    <path d="M309.641 0h-300c-5.514 0-10 4.486-10 10v359.281c0 5.514 4.486 10 10 10h300c5.514 0 10-4.486 10-10V10c0-5.514-4.487-10-10-10zm-10 359.281h-280V96.557h280v262.724z"/>
    <path d="M59.641 175.641h200a5 5 0 005-5v-34a5 5 0 00-5-5h-200a5 5 0 00-5 5v34a5 5 0 005 5zM59.641 322.641h91a5 5 0 005-5v-95a5 5 0 00-5-5h-91a5 5 0 00-5 5v95a5 5 0 005 5zM259.641 217.641h-70a5 5 0 00-5 5v29a5 5 0 005 5h70a5 5 0 005-5v-29a5 5 0 00-5-5zM259.641 282.324h-70a5 5 0 00-5 5v29a5 5 0 005 5h70a5 5 0 005-5v-29a5 5 0 00-5-5z"/>
  </g>
  <g stroke="#666" stroke-width="12">
    <path d="M14.86 186.86c-18.747 18.743-18.747 49.135 0 67.882l39.552 39.556a47.79 47.79 0 0018.256 11.433 48.218 48.218 0 0031.373 0 47.786 47.786 0 0018.256-11.433 47.843 47.843 0 0011.433-18.256l-.842-.842c.842.842-14.834-15.14-14.834-15.14l-14.855 15.14c-8.183 8.188-21.502 8.188-29.69 0l-.841-.842-38.715-38.714c-8.183-8.183-8.183-21.502 0-29.69 8.188-8.183 21.507-8.183 29.69 0l38.714 38.715 15.687 6.379 15.686-6.38a47.822 47.822 0 00-11.432-18.256L82.742 186.86c-18.748-18.747-49.14-18.747-67.882 0z" fill="#a3e1ff" stroke-width="4.800000000000001"/>
    <path d="M102.358 244.668a47.818 47.818 0 00-18.252 11.438 47.785 47.785 0 00-11.438 18.252l.842.841c8.188 8.188 21.506 8.188 29.69 0 8.187-8.183 21.506-8.183 29.69 0l.84.842 38.715 38.714c8.188 8.188 8.188 21.507 0 29.69-8.183 8.187-21.502 8.187-29.69 0l-38.714-38.715a48.218 48.218 0 01-31.373 0 47.798 47.798 0 0011.438 18.257l39.551 39.556c18.747 18.743 49.139 18.743 67.886 0 18.743-18.747 18.743-49.139 0-67.886l-39.556-39.552a47.8 47.8 0 00-18.256-11.437 48.227 48.227 0 00-31.373 0z" fill="#4aaee2" stroke-width="4.800000000000001"/>
  </g>
  <g stroke-width="15.5">
    <path fill="#ebba16" stroke="#666" d="M229.081 227.481v-1.937a11.702 11.702 0 00-11.702-11.702H184.44a11.702 11.702 0 00-11.741 11.702v144.964a5.812 5.812 0 005.851 5.812H342V239.222a11.702 11.702 0 00-11.703-11.702H229.081z" stroke-width="6.2"/>
    <path fill="#ffde47" stroke="#888" d="M359.398 266.89H207.11c-5.541 0-10.346 3.565-11.47 8.525l-22.281 98.037a5.812 5.27 0 005.192 2.906h170.035a11.702 10.579 0 0011.625-9.455L371.1 278.67c.736-6.278-4.689-11.78-11.664-11.78z" stroke-width="6.2"/>
  </g>
</svg>
